<svg width="100" height="100" viewBox="0 0 100 100" fill="none" xmlns="http://www.w3.org/2000/svg">
<rect width="100" height="100" fill="black"/>
<path d="M19.0158 63.72C19.5704 64.104 20.5518 64.5733 21.9598 65.128C23.3678 65.64 25.0318 65.896 26.9518 65.896C29.2131 65.896 30.9198 65.4053 32.0718 64.424C33.2238 63.4 33.9918 61.8213 34.3758 59.688C34.7598 57.5547 34.9518 54.7813 34.9518 51.368V27.56H43.7838V50.664C43.7838 54.0773 43.5918 57.192 43.2078 60.008C42.8238 62.824 42.0771 65.256 40.9678 67.304C39.8584 69.352 38.1731 70.9307 35.9118 72.04C33.6931 73.1493 30.7278 73.704 27.0158 73.704C24.9678 73.704 23.1331 73.4693 21.5118 73C19.8904 72.5307 18.3971 71.8267 17.0318 70.888L19.0158 63.72ZM48.2773 73V27.56H67.5413C69.6319 27.56 71.5519 27.9867 73.3013 28.84C75.0933 29.6933 76.6293 30.8453 77.9093 32.296C79.1893 33.7467 80.1919 35.368 80.9173 37.16C81.6426 38.952 82.0053 40.7867 82.0053 42.664C82.0053 45.224 81.4079 47.656 80.2133 49.96C79.0186 52.264 77.3546 54.1413 75.2213 55.592C73.1306 57.0427 70.6773 57.768 67.8613 57.768H57.1093V73H48.2773ZM57.1093 50.024H67.3493C68.9706 50.024 70.3146 49.3627 71.3813 48.04C72.4906 46.6747 73.0453 44.8827 73.0453 42.664C73.0453 40.3173 72.4266 38.504 71.1893 37.224C69.9519 35.944 68.5439 35.304 66.9653 35.304H57.1093V50.024Z" fill="white"/>
</svg>
